<mxfile host="app.diagrams.net" modified="2023-05-16T03:30:33.274Z" agent="Mozilla/5.0 (Windows NT 10.0; Win64; x64) AppleWebKit/537.36 (KHTML, like Gecko) Chrome/113.0.0.0 Safari/537.36" etag="e-rRt7YC7ZAwxGjBqWnV" version="21.3.2" type="github">
  <diagram name="Page-1" id="XIC4esXYD0cBb3S4FwK3">
    <mxGraphModel dx="1216" dy="544" grid="1" gridSize="10" guides="1" tooltips="1" connect="1" arrows="1" fold="1" page="1" pageScale="1" pageWidth="850" pageHeight="1100" math="0" shadow="0">
      <root>
        <mxCell id="0" />
        <mxCell id="1" parent="0" />
        <mxCell id="E7OeqzelO8EWKugM96J4-9" value="" style="rounded=0;whiteSpace=wrap;html=1;direction=south;" vertex="1" parent="1">
          <mxGeometry x="200" y="80" width="380" height="460" as="geometry" />
        </mxCell>
        <mxCell id="E7OeqzelO8EWKugM96J4-23" style="edgeStyle=orthogonalEdgeStyle;rounded=0;orthogonalLoop=1;jettySize=auto;html=1;entryX=1;entryY=0.5;entryDx=0;entryDy=0;" edge="1" parent="1" source="E7OeqzelO8EWKugM96J4-2" target="E7OeqzelO8EWKugM96J4-22">
          <mxGeometry relative="1" as="geometry" />
        </mxCell>
        <mxCell id="E7OeqzelO8EWKugM96J4-2" value="Bagian Penjualan" style="shape=umlActor;verticalLabelPosition=bottom;verticalAlign=top;html=1;outlineConnect=0;" vertex="1" parent="1">
          <mxGeometry x="640" y="270" width="30" height="60" as="geometry" />
        </mxCell>
        <mxCell id="E7OeqzelO8EWKugM96J4-15" style="edgeStyle=orthogonalEdgeStyle;rounded=0;orthogonalLoop=1;jettySize=auto;html=1;entryX=0;entryY=0.5;entryDx=0;entryDy=0;" edge="1" parent="1" source="E7OeqzelO8EWKugM96J4-4" target="E7OeqzelO8EWKugM96J4-11">
          <mxGeometry relative="1" as="geometry" />
        </mxCell>
        <mxCell id="E7OeqzelO8EWKugM96J4-4" value="Pelanggan" style="shape=umlActor;verticalLabelPosition=bottom;verticalAlign=top;html=1;outlineConnect=0;" vertex="1" parent="1">
          <mxGeometry x="110" y="270" width="30" height="60" as="geometry" />
        </mxCell>
        <mxCell id="E7OeqzelO8EWKugM96J4-10" value="&lt;b&gt;Pemesanan Barang&lt;/b&gt;" style="text;html=1;align=center;verticalAlign=middle;resizable=0;points=[];autosize=1;strokeColor=none;fillColor=none;" vertex="1" parent="1">
          <mxGeometry x="200" y="80" width="130" height="30" as="geometry" />
        </mxCell>
        <mxCell id="E7OeqzelO8EWKugM96J4-19" style="edgeStyle=orthogonalEdgeStyle;rounded=0;orthogonalLoop=1;jettySize=auto;html=1;exitX=0.5;exitY=1;exitDx=0;exitDy=0;" edge="1" parent="1" source="E7OeqzelO8EWKugM96J4-11" target="E7OeqzelO8EWKugM96J4-18">
          <mxGeometry relative="1" as="geometry" />
        </mxCell>
        <mxCell id="E7OeqzelO8EWKugM96J4-27" style="edgeStyle=orthogonalEdgeStyle;rounded=0;orthogonalLoop=1;jettySize=auto;html=1;exitX=1;exitY=0.5;exitDx=0;exitDy=0;entryX=0.5;entryY=0;entryDx=0;entryDy=0;entryPerimeter=0;" edge="1" parent="1" source="E7OeqzelO8EWKugM96J4-11" target="E7OeqzelO8EWKugM96J4-2">
          <mxGeometry relative="1" as="geometry" />
        </mxCell>
        <mxCell id="E7OeqzelO8EWKugM96J4-29" value="&amp;lt;&amp;lt;include&amp;gt;&amp;gt;" style="edgeLabel;html=1;align=center;verticalAlign=middle;resizable=0;points=[];" vertex="1" connectable="0" parent="E7OeqzelO8EWKugM96J4-27">
          <mxGeometry x="-0.3392" y="-2" relative="1" as="geometry">
            <mxPoint as="offset" />
          </mxGeometry>
        </mxCell>
        <mxCell id="E7OeqzelO8EWKugM96J4-11" value="Surat Pesanan" style="ellipse;whiteSpace=wrap;html=1;" vertex="1" parent="1">
          <mxGeometry x="280" y="170" width="110" height="40" as="geometry" />
        </mxCell>
        <mxCell id="E7OeqzelO8EWKugM96J4-28" style="edgeStyle=orthogonalEdgeStyle;rounded=0;orthogonalLoop=1;jettySize=auto;html=1;exitX=1;exitY=0.5;exitDx=0;exitDy=0;entryX=0.25;entryY=0.1;entryDx=0;entryDy=0;entryPerimeter=0;" edge="1" parent="1" source="E7OeqzelO8EWKugM96J4-18" target="E7OeqzelO8EWKugM96J4-2">
          <mxGeometry relative="1" as="geometry" />
        </mxCell>
        <mxCell id="E7OeqzelO8EWKugM96J4-30" value="&amp;lt;&amp;lt;extend&amp;gt;&amp;gt;" style="edgeLabel;html=1;align=center;verticalAlign=middle;resizable=0;points=[];" vertex="1" connectable="0" parent="E7OeqzelO8EWKugM96J4-28">
          <mxGeometry x="-0.2738" y="-3" relative="1" as="geometry">
            <mxPoint as="offset" />
          </mxGeometry>
        </mxCell>
        <mxCell id="E7OeqzelO8EWKugM96J4-18" value="Mencatat surat pesanan" style="ellipse;whiteSpace=wrap;html=1;" vertex="1" parent="1">
          <mxGeometry x="325" y="260" width="130" height="40" as="geometry" />
        </mxCell>
        <mxCell id="E7OeqzelO8EWKugM96J4-25" style="edgeStyle=orthogonalEdgeStyle;rounded=0;orthogonalLoop=1;jettySize=auto;html=1;exitX=0;exitY=0.5;exitDx=0;exitDy=0;entryX=1;entryY=0.3333333333333333;entryDx=0;entryDy=0;entryPerimeter=0;" edge="1" parent="1" source="E7OeqzelO8EWKugM96J4-22" target="E7OeqzelO8EWKugM96J4-4">
          <mxGeometry relative="1" as="geometry" />
        </mxCell>
        <mxCell id="E7OeqzelO8EWKugM96J4-22" value="Faktur dan &lt;br&gt;surat jalan" style="ellipse;whiteSpace=wrap;html=1;" vertex="1" parent="1">
          <mxGeometry x="380" y="360" width="100" height="40" as="geometry" />
        </mxCell>
      </root>
    </mxGraphModel>
  </diagram>
</mxfile>
